<svg xmlns="http://www.w3.org/2000/svg" xmlns:xlink="http://www.w3.org/1999/xlink" width="335" zoomAndPan="magnify" viewBox="0 0 251.25 70.499998" height="94" preserveAspectRatio="xMidYMid meet" version="1.0"><defs><clipPath id="5cd250fad3"><path d="M 0.511719 0 L 249.992188 0 L 249.992188 70 L 0.511719 70 Z M 0.511719 0 " clip-rule="nonzero"/></clipPath><clipPath id="17b433b6bd"><path d="M 0.511719 0 L 54.367188 0 L 54.367188 69.488281 L 0.511719 69.488281 Z M 0.511719 0 " clip-rule="nonzero"/></clipPath><clipPath id="a253149da1"><path d="M 49.238281 26.601562 C 49.238281 29.421875 46.933594 31.707031 44.089844 31.707031 C 41.246094 31.707031 38.941406 29.421875 38.941406 26.601562 C 38.941406 23.78125 41.246094 21.492188 44.089844 21.492188 C 46.933594 21.492188 49.238281 23.78125 49.238281 26.601562 Z M 54 3.925781 C 53.179688 1.058594 50.175781 -0.601562 47.285156 0.207031 L 4.628906 12.195312 C 1.738281 13.003906 0.0585938 15.992188 0.878906 18.855469 C 1.554688 21.226562 3.738281 22.78125 6.109375 22.78125 C 6.59375 22.78125 7.09375 22.714844 7.59375 22.578125 L 19.054688 19.359375 C 19.117188 19.6875 19.199219 20.039062 19.300781 20.390625 L 27.21875 48.445312 C 29.101562 55.105469 28.128906 58.5 23.546875 59.769531 C 21.828125 60.25 19.699219 60.671875 18.554688 60.167969 C 17.402344 59.664062 16.441406 58.558594 15.742188 57.613281 C 15.050781 56.660156 14.621094 55.875 13.722656 54.207031 C 12.886719 52.652344 12.011719 51.578125 11.089844 50.992188 C 10.175781 50.402344 9.023438 50.289062 7.65625 50.671875 C 6.234375 51.066406 5.195312 51.8125 4.527344 52.917969 C 3.867188 54.023438 3.761719 55.386719 4.214844 57.003906 C 4.644531 58.527344 5.328125 60.0625 6.265625 61.625 C 7.207031 63.179688 8.230469 64.496094 9.335938 65.578125 C 11.441406 67.613281 13.800781 68.839844 16.417969 69.285156 C 19.039062 69.71875 22.082031 69.464844 25.539062 68.5 C 29.378906 67.429688 32.414062 65.753906 34.648438 63.453125 C 36.875 61.152344 38.183594 58.445312 38.558594 55.335938 C 38.789062 53.476562 38.773438 51.722656 38.519531 50.054688 C 38.257812 48.382812 37.804688 46.394531 37.152344 44.085938 L 29.65625 17.515625 C 29.554688 17.148438 29.441406 16.804688 29.308594 16.480469 L 50.25 10.59375 C 53.140625 9.777344 54.8125 6.796875 54 3.933594 Z M 54 3.925781 " clip-rule="nonzero"/></clipPath><linearGradient x1="-0.20737" gradientTransform="matrix(0.768196, 0, 0, -0.762195, 0.671628, 71.219459)" y1="47.860001" x2="69.897372" gradientUnits="userSpaceOnUse" y2="47.860001" id="4ec255c6ee"><stop stop-opacity="1" stop-color="rgb(60.778809%, 36.468506%, 89.7995%)" offset="0"/><stop stop-opacity="1" stop-color="rgb(60.632324%, 36.512756%, 89.813232%)" offset="0.015625"/><stop stop-opacity="1" stop-color="rgb(60.30426%, 36.611938%, 89.846802%)" offset="0.03125"/><stop stop-opacity="1" stop-color="rgb(59.941101%, 36.720276%, 89.884949%)" offset="0.046875"/><stop stop-opacity="1" stop-color="rgb(59.579468%, 36.830139%, 89.92157%)" offset="0.0625"/><stop stop-opacity="1" stop-color="rgb(59.216309%, 36.938477%, 89.958191%)" offset="0.078125"/><stop stop-opacity="1" stop-color="rgb(58.854675%, 37.04834%, 89.994812%)" offset="0.09375"/><stop stop-opacity="1" stop-color="rgb(58.491516%, 37.156677%, 90.032959%)" offset="0.109375"/><stop stop-opacity="1" stop-color="rgb(58.129883%, 37.266541%, 90.06958%)" offset="0.125"/><stop stop-opacity="1" stop-color="rgb(57.766724%, 37.374878%, 90.106201%)" offset="0.140625"/><stop stop-opacity="1" stop-color="rgb(57.403564%, 37.484741%, 90.142822%)" offset="0.15625"/><stop stop-opacity="1" stop-color="rgb(57.041931%, 37.593079%, 90.180969%)" offset="0.171875"/><stop stop-opacity="1" stop-color="rgb(56.732178%, 37.698364%, 90.223694%)" offset="0.179688"/><stop stop-opacity="1" stop-color="rgb(56.47583%, 37.802124%, 90.275574%)" offset="0.1875"/><stop stop-opacity="1" stop-color="rgb(56.219482%, 37.904358%, 90.327454%)" offset="0.195313"/><stop stop-opacity="1" stop-color="rgb(55.963135%, 38.006592%, 90.377808%)" offset="0.203125"/><stop stop-opacity="1" stop-color="rgb(55.706787%, 38.110352%, 90.429688%)" offset="0.210938"/><stop stop-opacity="1" stop-color="rgb(55.448914%, 38.212585%, 90.481567%)" offset="0.21875"/><stop stop-opacity="1" stop-color="rgb(55.192566%, 38.314819%, 90.531921%)" offset="0.226563"/><stop stop-opacity="1" stop-color="rgb(54.936218%, 38.418579%, 90.583801%)" offset="0.234375"/><stop stop-opacity="1" stop-color="rgb(54.679871%, 38.520813%, 90.634155%)" offset="0.242188"/><stop stop-opacity="1" stop-color="rgb(54.421997%, 38.623047%, 90.686035%)" offset="0.25"/><stop stop-opacity="1" stop-color="rgb(54.165649%, 38.725281%, 90.737915%)" offset="0.257813"/><stop stop-opacity="1" stop-color="rgb(53.909302%, 38.829041%, 90.788269%)" offset="0.265625"/><stop stop-opacity="1" stop-color="rgb(53.652954%, 38.931274%, 90.840149%)" offset="0.273438"/><stop stop-opacity="1" stop-color="rgb(53.395081%, 39.033508%, 90.892029%)" offset="0.28125"/><stop stop-opacity="1" stop-color="rgb(53.138733%, 39.137268%, 90.942383%)" offset="0.289063"/><stop stop-opacity="1" stop-color="rgb(52.882385%, 39.239502%, 90.994263%)" offset="0.296875"/><stop stop-opacity="1" stop-color="rgb(52.626038%, 39.341736%, 91.046143%)" offset="0.304688"/><stop stop-opacity="1" stop-color="rgb(52.368164%, 39.445496%, 91.096497%)" offset="0.3125"/><stop stop-opacity="1" stop-color="rgb(52.111816%, 39.547729%, 91.148376%)" offset="0.320313"/><stop stop-opacity="1" stop-color="rgb(51.855469%, 39.649963%, 91.200256%)" offset="0.328125"/><stop stop-opacity="1" stop-color="rgb(51.599121%, 39.752197%, 91.25061%)" offset="0.335938"/><stop stop-opacity="1" stop-color="rgb(51.341248%, 39.855957%, 91.30249%)" offset="0.34375"/><stop stop-opacity="1" stop-color="rgb(51.0849%, 39.958191%, 91.35437%)" offset="0.351563"/><stop stop-opacity="1" stop-color="rgb(50.828552%, 40.060425%, 91.404724%)" offset="0.359375"/><stop stop-opacity="1" stop-color="rgb(50.572205%, 40.164185%, 91.456604%)" offset="0.367188"/><stop stop-opacity="1" stop-color="rgb(50.314331%, 40.266418%, 91.508484%)" offset="0.375"/><stop stop-opacity="1" stop-color="rgb(50.057983%, 40.368652%, 91.558838%)" offset="0.382813"/><stop stop-opacity="1" stop-color="rgb(49.801636%, 40.472412%, 91.610718%)" offset="0.390625"/><stop stop-opacity="1" stop-color="rgb(49.545288%, 40.574646%, 91.661072%)" offset="0.398438"/><stop stop-opacity="1" stop-color="rgb(49.287415%, 40.67688%, 91.712952%)" offset="0.40625"/><stop stop-opacity="1" stop-color="rgb(49.031067%, 40.779114%, 91.764832%)" offset="0.414063"/><stop stop-opacity="1" stop-color="rgb(48.774719%, 40.882874%, 91.815186%)" offset="0.421875"/><stop stop-opacity="1" stop-color="rgb(48.518372%, 40.985107%, 91.867065%)" offset="0.429688"/><stop stop-opacity="1" stop-color="rgb(48.260498%, 41.087341%, 91.918945%)" offset="0.4375"/><stop stop-opacity="1" stop-color="rgb(48.00415%, 41.191101%, 91.969299%)" offset="0.445313"/><stop stop-opacity="1" stop-color="rgb(47.747803%, 41.293335%, 92.021179%)" offset="0.453125"/><stop stop-opacity="1" stop-color="rgb(47.491455%, 41.395569%, 92.073059%)" offset="0.460938"/><stop stop-opacity="1" stop-color="rgb(47.233582%, 41.499329%, 92.123413%)" offset="0.46875"/><stop stop-opacity="1" stop-color="rgb(46.939087%, 41.615295%, 92.178345%)" offset="0.476563"/><stop stop-opacity="1" stop-color="rgb(46.59729%, 41.749573%, 92.237854%)" offset="0.484375"/><stop stop-opacity="1" stop-color="rgb(46.246338%, 41.886902%, 92.297363%)" offset="0.492188"/><stop stop-opacity="1" stop-color="rgb(45.895386%, 42.022705%, 92.356873%)" offset="0.5"/><stop stop-opacity="1" stop-color="rgb(45.544434%, 42.160034%, 92.416382%)" offset="0.507812"/><stop stop-opacity="1" stop-color="rgb(45.191956%, 42.297363%, 92.477417%)" offset="0.515625"/><stop stop-opacity="1" stop-color="rgb(44.841003%, 42.433167%, 92.536926%)" offset="0.523438"/><stop stop-opacity="1" stop-color="rgb(44.490051%, 42.570496%, 92.596436%)" offset="0.53125"/><stop stop-opacity="1" stop-color="rgb(44.139099%, 42.707825%, 92.655945%)" offset="0.539063"/><stop stop-opacity="1" stop-color="rgb(43.788147%, 42.843628%, 92.715454%)" offset="0.546875"/><stop stop-opacity="1" stop-color="rgb(43.437195%, 42.980957%, 92.776489%)" offset="0.554688"/><stop stop-opacity="1" stop-color="rgb(43.086243%, 43.118286%, 92.835999%)" offset="0.5625"/><stop stop-opacity="1" stop-color="rgb(42.735291%, 43.255615%, 92.895508%)" offset="0.570312"/><stop stop-opacity="1" stop-color="rgb(42.384338%, 43.391418%, 92.955017%)" offset="0.578125"/><stop stop-opacity="1" stop-color="rgb(42.033386%, 43.528748%, 93.014526%)" offset="0.585938"/><stop stop-opacity="1" stop-color="rgb(41.682434%, 43.666077%, 93.075562%)" offset="0.59375"/><stop stop-opacity="1" stop-color="rgb(41.331482%, 43.80188%, 93.135071%)" offset="0.601563"/><stop stop-opacity="1" stop-color="rgb(40.98053%, 43.939209%, 93.19458%)" offset="0.609375"/><stop stop-opacity="1" stop-color="rgb(40.629578%, 44.076538%, 93.254089%)" offset="0.617188"/><stop stop-opacity="1" stop-color="rgb(40.278625%, 44.213867%, 93.313599%)" offset="0.625"/><stop stop-opacity="1" stop-color="rgb(39.927673%, 44.34967%, 93.374634%)" offset="0.632812"/><stop stop-opacity="1" stop-color="rgb(39.576721%, 44.487%, 93.434143%)" offset="0.640625"/><stop stop-opacity="1" stop-color="rgb(39.225769%, 44.624329%, 93.493652%)" offset="0.648438"/><stop stop-opacity="1" stop-color="rgb(38.873291%, 44.760132%, 93.553162%)" offset="0.65625"/><stop stop-opacity="1" stop-color="rgb(38.522339%, 44.897461%, 93.612671%)" offset="0.664063"/><stop stop-opacity="1" stop-color="rgb(38.171387%, 45.03479%, 93.673706%)" offset="0.671875"/><stop stop-opacity="1" stop-color="rgb(37.820435%, 45.170593%, 93.733215%)" offset="0.679688"/><stop stop-opacity="1" stop-color="rgb(37.469482%, 45.307922%, 93.792725%)" offset="0.6875"/><stop stop-opacity="1" stop-color="rgb(37.11853%, 45.445251%, 93.852234%)" offset="0.695313"/><stop stop-opacity="1" stop-color="rgb(36.767578%, 45.582581%, 93.911743%)" offset="0.703125"/><stop stop-opacity="1" stop-color="rgb(36.416626%, 45.718384%, 93.972778%)" offset="0.710938"/><stop stop-opacity="1" stop-color="rgb(36.065674%, 45.855713%, 94.032288%)" offset="0.71875"/><stop stop-opacity="1" stop-color="rgb(35.714722%, 45.993042%, 94.091797%)" offset="0.726562"/><stop stop-opacity="1" stop-color="rgb(35.36377%, 46.128845%, 94.151306%)" offset="0.734375"/><stop stop-opacity="1" stop-color="rgb(35.012817%, 46.266174%, 94.210815%)" offset="0.742188"/><stop stop-opacity="1" stop-color="rgb(34.661865%, 46.403503%, 94.271851%)" offset="0.75"/><stop stop-opacity="1" stop-color="rgb(34.310913%, 46.539307%, 94.33136%)" offset="0.757813"/><stop stop-opacity="1" stop-color="rgb(33.959961%, 46.676636%, 94.390869%)" offset="0.765625"/><stop stop-opacity="1" stop-color="rgb(33.609009%, 46.813965%, 94.450378%)" offset="0.773438"/><stop stop-opacity="1" stop-color="rgb(33.258057%, 46.951294%, 94.509888%)" offset="0.78125"/><stop stop-opacity="1" stop-color="rgb(32.907104%, 47.087097%, 94.570923%)" offset="0.789063"/><stop stop-opacity="1" stop-color="rgb(32.554626%, 47.224426%, 94.630432%)" offset="0.796875"/><stop stop-opacity="1" stop-color="rgb(32.203674%, 47.361755%, 94.689941%)" offset="0.804688"/><stop stop-opacity="1" stop-color="rgb(31.852722%, 47.497559%, 94.749451%)" offset="0.8125"/><stop stop-opacity="1" stop-color="rgb(31.50177%, 47.634888%, 94.80896%)" offset="0.820313"/><stop stop-opacity="1" stop-color="rgb(31.150818%, 47.772217%, 94.869995%)" offset="0.828125"/><stop stop-opacity="1" stop-color="rgb(30.783081%, 47.917175%, 94.93866%)" offset="0.835938"/><stop stop-opacity="1" stop-color="rgb(30.397034%, 48.071289%, 95.014954%)" offset="0.84375"/><stop stop-opacity="1" stop-color="rgb(30.012512%, 48.225403%, 95.092773%)" offset="0.851563"/><stop stop-opacity="1" stop-color="rgb(29.627991%, 48.379517%, 95.169067%)" offset="0.859375"/><stop stop-opacity="1" stop-color="rgb(29.241943%, 48.53363%, 95.246887%)" offset="0.867188"/><stop stop-opacity="1" stop-color="rgb(28.857422%, 48.687744%, 95.323181%)" offset="0.875"/><stop stop-opacity="1" stop-color="rgb(28.471375%, 48.841858%, 95.401001%)" offset="0.882812"/><stop stop-opacity="1" stop-color="rgb(28.086853%, 48.997498%, 95.477295%)" offset="0.890625"/><stop stop-opacity="1" stop-color="rgb(27.702332%, 49.151611%, 95.555115%)" offset="0.898438"/><stop stop-opacity="1" stop-color="rgb(27.316284%, 49.305725%, 95.632935%)" offset="0.90625"/><stop stop-opacity="1" stop-color="rgb(26.931763%, 49.459839%, 95.709229%)" offset="0.914063"/><stop stop-opacity="1" stop-color="rgb(26.547241%, 49.613953%, 95.787048%)" offset="0.921875"/><stop stop-opacity="1" stop-color="rgb(26.161194%, 49.768066%, 95.863342%)" offset="0.929688"/><stop stop-opacity="1" stop-color="rgb(25.776672%, 49.92218%, 95.941162%)" offset="0.9375"/><stop stop-opacity="1" stop-color="rgb(25.390625%, 50.076294%, 96.017456%)" offset="0.945313"/><stop stop-opacity="1" stop-color="rgb(25.006104%, 50.230408%, 96.095276%)" offset="0.953125"/><stop stop-opacity="1" stop-color="rgb(24.621582%, 50.384521%, 96.17157%)" offset="0.960938"/><stop stop-opacity="1" stop-color="rgb(24.235535%, 50.538635%, 96.24939%)" offset="0.96875"/><stop stop-opacity="1" stop-color="rgb(23.851013%, 50.692749%, 96.325684%)" offset="0.976562"/><stop stop-opacity="1" stop-color="rgb(23.466492%, 50.846863%, 96.403503%)" offset="0.984375"/><stop stop-opacity="1" stop-color="rgb(23.207092%, 50.952148%, 96.455383%)" offset="1"/></linearGradient><clipPath id="1883b909f0"><path d="M 73.195312 18.519531 L 81 18.519531 L 81 28.945312 L 73.195312 28.945312 Z M 73.195312 18.519531 " clip-rule="nonzero"/></clipPath><clipPath id="aa75d424fa"><path d="M 82 19 L 89 19 L 89 28.945312 L 82 28.945312 Z M 82 19 " clip-rule="nonzero"/></clipPath><clipPath id="8e9af01d1e"><path d="M 90 21 L 96 21 L 96 28.945312 L 90 28.945312 Z M 90 21 " clip-rule="nonzero"/></clipPath><clipPath id="c39c405217"><path d="M 98 18.519531 L 105 18.519531 L 105 28.945312 L 98 28.945312 Z M 98 18.519531 " clip-rule="nonzero"/></clipPath><clipPath id="5c465e9f7c"><path d="M 106 18.519531 L 113 18.519531 L 113 28.945312 L 106 28.945312 Z M 106 18.519531 " clip-rule="nonzero"/></clipPath><clipPath id="a1f2f2e387"><path d="M 113 21 L 120.96875 21 L 120.96875 28.945312 L 113 28.945312 Z M 113 21 " clip-rule="nonzero"/></clipPath><clipPath id="da633e92f8"><path d="M 75 34.746094 L 246 34.746094 L 246 51.25 L 75 51.25 Z M 75 34.746094 " clip-rule="nonzero"/></clipPath><clipPath id="9330a7ac87"><path d="M 75.210938 35.914062 L 81.109375 35.914062 L 81.109375 50.890625 L 75.210938 50.890625 C 75.210938 50.890625 75.210938 35.914062 75.210938 35.914062 Z M 84.191406 39.429688 L 89.863281 39.429688 L 89.863281 50.902344 L 84.191406 50.902344 Z M 98.375 39.074219 C 99.300781 39.074219 100.199219 39.164062 101.070312 39.363281 C 101.941406 39.5625 102.707031 39.882812 103.390625 40.359375 C 104.074219 40.839844 104.621094 41.476562 105.023438 42.285156 C 105.425781 43.097656 105.640625 44.117188 105.640625 45.351562 L 105.640625 50.902344 L 99.96875 50.902344 L 99.96875 46.058594 C 99.96875 44.886719 99.664062 44.050781 99.046875 43.5625 C 98.429688 43.070312 97.316406 42.832031 95.707031 42.832031 C 94.847656 42.832031 94.03125 42.921875 93.242188 43.109375 C 92.449219 43.296875 91.738281 43.519531 91.109375 43.773438 C 90.480469 44.027344 89.984375 44.277344 89.621094 44.53125 L 89.566406 43.640625 C 89.632812 43.363281 89.847656 42.964844 90.210938 42.457031 C 90.574219 41.953125 91.121094 41.449219 91.832031 40.933594 C 92.542969 40.414062 93.429688 39.976562 94.515625 39.617188 C 95.601562 39.257812 96.875 39.074219 98.347656 39.074219 Z M 107.183594 39.429688 L 121.085938 39.429688 L 121.085938 42.949219 L 107.183594 42.949219 Z M 111.285156 35.914062 L 116.957031 35.914062 L 116.957031 50.890625 L 111.285156 50.890625 C 111.285156 50.890625 111.285156 35.914062 111.285156 35.914062 Z M 138.59375 46.773438 L 144.167969 46.773438 C 144.023438 47.675781 143.578125 48.472656 142.816406 49.136719 C 142.050781 49.800781 140.9375 50.320312 139.476562 50.691406 C 138.015625 51.0625 136.167969 51.234375 133.914062 51.234375 C 131.527344 51.234375 129.492188 51.050781 127.761719 50.675781 C 126.03125 50.304688 124.703125 49.667969 123.78125 48.777344 C 122.855469 47.890625 122.386719 46.679688 122.386719 45.167969 C 122.386719 43.652344 122.839844 42.472656 123.738281 41.582031 C 124.636719 40.691406 125.953125 40.042969 127.667969 39.65625 C 129.382812 39.273438 131.460938 39.074219 133.902344 39.074219 C 136.339844 39.074219 138.257812 39.285156 139.785156 39.710938 C 141.3125 40.136719 142.441406 40.8125 143.164062 41.753906 C 143.886719 42.699219 144.238281 43.972656 144.210938 45.578125 L 128.148438 45.578125 C 128.230469 45.992188 128.445312 46.363281 128.820312 46.707031 C 129.195312 47.050781 129.773438 47.316406 130.550781 47.53125 C 131.328125 47.742188 132.371094 47.847656 133.671875 47.847656 C 134.972656 47.847656 136.140625 47.757812 137.011719 47.570312 C 137.882812 47.382812 138.40625 47.117188 138.578125 46.773438 Z M 133.671875 42.472656 C 131.996094 42.472656 130.738281 42.65625 129.851562 43.015625 C 128.96875 43.375 128.472656 43.734375 128.3125 44.09375 L 138.714844 44.09375 C 138.605469 43.679688 138.164062 43.320312 137.386719 42.976562 C 136.609375 42.632812 135.375 42.472656 133.671875 42.472656 Z M 146.101562 39.429688 L 151.769531 39.429688 L 151.769531 50.902344 L 146.101562 50.902344 Z M 157.871094 43.761719 C 156.851562 43.761719 155.914062 43.851562 155.054688 44.039062 C 154.199219 44.226562 153.472656 44.449219 152.882812 44.703125 C 152.292969 44.953125 151.839844 45.207031 151.53125 45.460938 L 151.476562 44.332031 C 151.53125 44 151.648438 43.613281 151.851562 43.175781 C 152.050781 42.738281 152.335938 42.273438 152.683594 41.792969 C 153.03125 41.316406 153.460938 40.878906 153.957031 40.453125 C 154.453125 40.027344 155.042969 39.710938 155.6875 39.445312 C 156.328125 39.179688 157.054688 39.058594 157.84375 39.058594 L 157.84375 43.746094 Z M 159.050781 40.136719 L 174.039062 40.136719 L 174.039062 43.652344 L 159.050781 43.652344 Z M 168.582031 34.746094 L 174.039062 34.746094 L 174.039062 38.488281 L 170.941406 38.488281 C 170.3125 38.476562 169.828125 38.503906 169.492188 38.582031 C 169.160156 38.660156 168.917969 38.820312 168.78125 39.046875 C 168.648438 39.285156 168.582031 39.644531 168.582031 40.121094 L 168.582031 50.890625 L 162.910156 50.890625 L 162.910156 38.96875 C 162.910156 38.023438 163.097656 37.253906 163.433594 36.628906 C 163.78125 36.007812 164.386719 35.542969 165.203125 35.222656 C 166.035156 34.902344 167.148438 34.757812 168.570312 34.757812 Z M 184.144531 51.222656 C 182.445312 51.222656 180.929688 50.984375 179.601562 50.503906 C 178.273438 50.027344 177.242188 49.335938 176.476562 48.433594 C 175.714844 47.53125 175.339844 46.429688 175.339844 45.152344 C 175.339844 43.878906 175.714844 42.683594 176.476562 41.78125 C 177.242188 40.878906 178.289062 40.203125 179.601562 39.75 C 180.914062 39.296875 182.445312 39.074219 184.144531 39.074219 C 186.035156 39.074219 187.671875 39.324219 189.054688 39.828125 C 190.433594 40.335938 191.492188 41.050781 192.242188 41.96875 C 192.996094 42.882812 193.371094 43.945312 193.371094 45.167969 C 193.371094 46.070312 193.15625 46.894531 192.726562 47.636719 C 192.296875 48.378906 191.679688 49.019531 190.875 49.5625 C 190.070312 50.105469 189.105469 50.519531 187.96875 50.796875 C 186.828125 51.089844 185.554688 51.222656 184.132812 51.222656 Z M 186.277344 47.664062 C 187.472656 47.664062 188.570312 47.597656 189.574219 47.4375 C 190.582031 47.292969 191.386719 47.039062 191.988281 46.679688 C 192.59375 46.324219 192.902344 45.816406 192.902344 45.152344 C 192.902344 44.488281 192.605469 43.972656 191.988281 43.613281 C 191.386719 43.253906 190.582031 43.003906 189.574219 42.871094 C 188.570312 42.738281 187.484375 42.65625 186.277344 42.65625 C 184.667969 42.65625 183.421875 42.855469 182.539062 43.269531 C 181.652344 43.679688 181.210938 44.304688 181.210938 45.152344 C 181.210938 45.699219 181.410156 46.164062 181.800781 46.535156 C 182.1875 46.90625 182.765625 47.183594 183.53125 47.382812 C 184.28125 47.570312 185.207031 47.664062 186.277344 47.664062 Z M 192.886719 39.429688 L 198.558594 39.429688 L 198.558594 50.902344 L 193.222656 50.902344 C 193.113281 50.1875 193.019531 49.496094 192.96875 48.820312 C 192.914062 48.140625 192.886719 47.359375 192.886719 46.457031 Z M 222.285156 45.910156 C 222.285156 47.039062 221.9375 47.996094 221.226562 48.792969 C 220.515625 49.589844 219.402344 50.199219 217.863281 50.625 C 216.335938 51.050781 214.351562 51.261719 211.910156 51.261719 C 209.46875 51.261719 207.390625 51.0625 205.675781 50.675781 C 203.960938 50.292969 202.660156 49.640625 201.773438 48.753906 C 200.890625 47.863281 200.449219 46.679688 200.449219 45.195312 C 200.449219 43.707031 200.890625 42.523438 201.773438 41.621094 C 202.660156 40.71875 203.960938 40.082031 205.675781 39.683594 C 207.390625 39.285156 209.457031 39.085938 211.910156 39.085938 C 214.363281 39.085938 216.335938 39.296875 217.835938 39.722656 C 219.351562 40.148438 220.464844 40.757812 221.171875 41.554688 C 221.882812 42.351562 222.246094 43.308594 222.257812 44.410156 L 217.058594 44.410156 C 216.804688 43.800781 216.238281 43.335938 215.355469 43.003906 C 214.46875 42.671875 213.316406 42.5 211.898438 42.5 C 210.742188 42.5 209.738281 42.578125 208.894531 42.75 C 208.050781 42.921875 207.390625 43.1875 206.921875 43.574219 C 206.453125 43.960938 206.226562 44.515625 206.226562 45.207031 C 206.226562 45.898438 206.453125 46.429688 206.910156 46.828125 C 207.367188 47.226562 208.023438 47.492188 208.867188 47.648438 C 209.726562 47.808594 210.730469 47.890625 211.898438 47.890625 C 213.316406 47.890625 214.46875 47.730469 215.355469 47.382812 C 216.238281 47.039062 216.816406 46.574219 217.070312 45.949219 L 222.273438 45.949219 L 222.273438 45.925781 Z M 240.15625 46.773438 L 245.734375 46.773438 C 245.585938 47.675781 245.144531 48.472656 244.378906 49.136719 C 243.613281 49.800781 242.503906 50.320312 241.042969 50.691406 C 239.578125 51.0625 237.730469 51.234375 235.476562 51.234375 C 233.089844 51.234375 231.054688 51.050781 229.324219 50.675781 C 227.59375 50.304688 226.269531 49.667969 225.34375 48.777344 C 224.417969 47.890625 223.949219 46.679688 223.949219 45.167969 C 223.949219 43.652344 224.40625 42.472656 225.300781 41.582031 C 226.199219 40.691406 227.515625 40.042969 229.230469 39.65625 C 230.945312 39.273438 233.023438 39.074219 235.464844 39.074219 C 237.902344 39.074219 239.820312 39.285156 241.347656 39.710938 C 242.878906 40.136719 244.003906 40.8125 244.726562 41.753906 C 245.453125 42.699219 245.800781 43.972656 245.773438 45.578125 L 229.714844 45.578125 C 229.792969 45.992188 230.007812 46.363281 230.382812 46.707031 C 230.757812 47.050781 231.335938 47.316406 232.113281 47.53125 C 232.890625 47.742188 233.9375 47.847656 235.238281 47.847656 C 236.535156 47.847656 237.703125 47.757812 238.574219 47.570312 C 239.445312 47.382812 239.96875 47.117188 240.144531 46.773438 Z M 235.238281 42.472656 C 233.5625 42.472656 232.300781 42.65625 231.414062 43.015625 C 230.53125 43.375 230.035156 43.734375 229.875 44.09375 L 240.277344 44.09375 C 240.167969 43.679688 239.726562 43.320312 238.949219 42.976562 C 238.171875 42.644531 236.9375 42.472656 235.238281 42.472656 Z M 235.238281 42.472656 " clip-rule="nonzero"/></clipPath><linearGradient x1="0.000000000000007105" gradientTransform="matrix(1.340594, 0, 0, -1.327731, 75.209692, 53.903801)" y1="8.22" x2="127.249992" gradientUnits="userSpaceOnUse" y2="8.22" id="fd01cb512f"><stop stop-opacity="1" stop-color="rgb(60.778809%, 36.468506%, 89.7995%)" offset="0"/><stop stop-opacity="1" stop-color="rgb(60.598755%, 36.523438%, 89.81781%)" offset="0.015625"/><stop stop-opacity="1" stop-color="rgb(60.238647%, 36.631775%, 89.854431%)" offset="0.03125"/><stop stop-opacity="1" stop-color="rgb(59.87854%, 36.740112%, 89.891052%)" offset="0.046875"/><stop stop-opacity="1" stop-color="rgb(59.518433%, 36.84845%, 89.927673%)" offset="0.0625"/><stop stop-opacity="1" stop-color="rgb(59.156799%, 36.956787%, 89.964294%)" offset="0.078125"/><stop stop-opacity="1" stop-color="rgb(58.796692%, 37.065125%, 90.000916%)" offset="0.09375"/><stop stop-opacity="1" stop-color="rgb(58.436584%, 37.173462%, 90.037537%)" offset="0.109375"/><stop stop-opacity="1" stop-color="rgb(58.076477%, 37.281799%, 90.075684%)" offset="0.125"/><stop stop-opacity="1" stop-color="rgb(57.71637%, 37.390137%, 90.112305%)" offset="0.140625"/><stop stop-opacity="1" stop-color="rgb(57.356262%, 37.498474%, 90.148926%)" offset="0.15625"/><stop stop-opacity="1" stop-color="rgb(56.987%, 37.612915%, 90.188599%)" offset="0.171875"/><stop stop-opacity="1" stop-color="rgb(56.669617%, 37.724304%, 90.237427%)" offset="0.179688"/><stop stop-opacity="1" stop-color="rgb(56.413269%, 37.826538%, 90.287781%)" offset="0.1875"/><stop stop-opacity="1" stop-color="rgb(56.158447%, 37.928772%, 90.338135%)" offset="0.195313"/><stop stop-opacity="1" stop-color="rgb(55.903625%, 38.031006%, 90.390015%)" offset="0.203125"/><stop stop-opacity="1" stop-color="rgb(55.647278%, 38.13324%, 90.440369%)" offset="0.210938"/><stop stop-opacity="1" stop-color="rgb(55.392456%, 38.235474%, 90.492249%)" offset="0.21875"/><stop stop-opacity="1" stop-color="rgb(55.137634%, 38.337708%, 90.542603%)" offset="0.226562"/><stop stop-opacity="1" stop-color="rgb(54.882812%, 38.438416%, 90.594482%)" offset="0.234375"/><stop stop-opacity="1" stop-color="rgb(54.626465%, 38.540649%, 90.644836%)" offset="0.242188"/><stop stop-opacity="1" stop-color="rgb(54.371643%, 38.642883%, 90.696716%)" offset="0.25"/><stop stop-opacity="1" stop-color="rgb(54.116821%, 38.745117%, 90.74707%)" offset="0.257812"/><stop stop-opacity="1" stop-color="rgb(53.860474%, 38.847351%, 90.79895%)" offset="0.265625"/><stop stop-opacity="1" stop-color="rgb(53.605652%, 38.949585%, 90.849304%)" offset="0.273438"/><stop stop-opacity="1" stop-color="rgb(53.35083%, 39.051819%, 90.899658%)" offset="0.28125"/><stop stop-opacity="1" stop-color="rgb(53.096008%, 39.154053%, 90.951538%)" offset="0.289062"/><stop stop-opacity="1" stop-color="rgb(52.839661%, 39.256287%, 91.001892%)" offset="0.296875"/><stop stop-opacity="1" stop-color="rgb(52.584839%, 39.358521%, 91.053772%)" offset="0.304688"/><stop stop-opacity="1" stop-color="rgb(52.330017%, 39.460754%, 91.104126%)" offset="0.3125"/><stop stop-opacity="1" stop-color="rgb(52.075195%, 39.562988%, 91.156006%)" offset="0.320312"/><stop stop-opacity="1" stop-color="rgb(51.818848%, 39.663696%, 91.20636%)" offset="0.328125"/><stop stop-opacity="1" stop-color="rgb(51.564026%, 39.76593%, 91.25824%)" offset="0.335937"/><stop stop-opacity="1" stop-color="rgb(51.309204%, 39.868164%, 91.308594%)" offset="0.34375"/><stop stop-opacity="1" stop-color="rgb(51.052856%, 39.970398%, 91.360474%)" offset="0.351562"/><stop stop-opacity="1" stop-color="rgb(50.798035%, 40.072632%, 91.410828%)" offset="0.359375"/><stop stop-opacity="1" stop-color="rgb(50.543213%, 40.174866%, 91.462708%)" offset="0.367187"/><stop stop-opacity="1" stop-color="rgb(50.288391%, 40.2771%, 91.513062%)" offset="0.375"/><stop stop-opacity="1" stop-color="rgb(50.032043%, 40.379333%, 91.563416%)" offset="0.382812"/><stop stop-opacity="1" stop-color="rgb(49.777222%, 40.481567%, 91.615295%)" offset="0.390625"/><stop stop-opacity="1" stop-color="rgb(49.5224%, 40.583801%, 91.665649%)" offset="0.398438"/><stop stop-opacity="1" stop-color="rgb(49.266052%, 40.686035%, 91.717529%)" offset="0.40625"/><stop stop-opacity="1" stop-color="rgb(49.01123%, 40.786743%, 91.767883%)" offset="0.414062"/><stop stop-opacity="1" stop-color="rgb(48.756409%, 40.888977%, 91.819763%)" offset="0.421875"/><stop stop-opacity="1" stop-color="rgb(48.501587%, 40.991211%, 91.870117%)" offset="0.429687"/><stop stop-opacity="1" stop-color="rgb(48.245239%, 41.093445%, 91.921997%)" offset="0.4375"/><stop stop-opacity="1" stop-color="rgb(47.990417%, 41.195679%, 91.972351%)" offset="0.445312"/><stop stop-opacity="1" stop-color="rgb(47.735596%, 41.297913%, 92.024231%)" offset="0.453125"/><stop stop-opacity="1" stop-color="rgb(47.479248%, 41.400146%, 92.074585%)" offset="0.460937"/><stop stop-opacity="1" stop-color="rgb(47.224426%, 41.50238%, 92.124939%)" offset="0.46875"/><stop stop-opacity="1" stop-color="rgb(46.929932%, 41.619873%, 92.179871%)" offset="0.476562"/><stop stop-opacity="1" stop-color="rgb(46.588135%, 41.752625%, 92.23938%)" offset="0.484375"/><stop stop-opacity="1" stop-color="rgb(46.238708%, 41.888428%, 92.298889%)" offset="0.492187"/><stop stop-opacity="1" stop-color="rgb(45.889282%, 42.024231%, 92.358398%)" offset="0.5"/><stop stop-opacity="1" stop-color="rgb(45.541382%, 42.160034%, 92.417908%)" offset="0.507812"/><stop stop-opacity="1" stop-color="rgb(45.191956%, 42.297363%, 92.475891%)" offset="0.515625"/><stop stop-opacity="1" stop-color="rgb(44.842529%, 42.433167%, 92.5354%)" offset="0.523437"/><stop stop-opacity="1" stop-color="rgb(44.493103%, 42.56897%, 92.59491%)" offset="0.53125"/><stop stop-opacity="1" stop-color="rgb(44.145203%, 42.704773%, 92.654419%)" offset="0.539062"/><stop stop-opacity="1" stop-color="rgb(43.795776%, 42.840576%, 92.713928%)" offset="0.546875"/><stop stop-opacity="1" stop-color="rgb(43.44635%, 42.976379%, 92.773438%)" offset="0.554687"/><stop stop-opacity="1" stop-color="rgb(43.096924%, 43.113708%, 92.832947%)" offset="0.5625"/><stop stop-opacity="1" stop-color="rgb(42.749023%, 43.249512%, 92.892456%)" offset="0.570312"/><stop stop-opacity="1" stop-color="rgb(42.399597%, 43.385315%, 92.951965%)" offset="0.578125"/><stop stop-opacity="1" stop-color="rgb(42.050171%, 43.521118%, 93.011475%)" offset="0.585937"/><stop stop-opacity="1" stop-color="rgb(41.702271%, 43.656921%, 93.070984%)" offset="0.59375"/><stop stop-opacity="1" stop-color="rgb(41.352844%, 43.79425%, 93.130493%)" offset="0.601562"/><stop stop-opacity="1" stop-color="rgb(41.003418%, 43.930054%, 93.190002%)" offset="0.609375"/><stop stop-opacity="1" stop-color="rgb(40.653992%, 44.065857%, 93.249512%)" offset="0.617187"/><stop stop-opacity="1" stop-color="rgb(40.306091%, 44.20166%, 93.309021%)" offset="0.625"/><stop stop-opacity="1" stop-color="rgb(39.956665%, 44.337463%, 93.36853%)" offset="0.632812"/><stop stop-opacity="1" stop-color="rgb(39.607239%, 44.474792%, 93.42804%)" offset="0.640625"/><stop stop-opacity="1" stop-color="rgb(39.257812%, 44.610596%, 93.487549%)" offset="0.648437"/><stop stop-opacity="1" stop-color="rgb(38.909912%, 44.746399%, 93.547058%)" offset="0.65625"/><stop stop-opacity="1" stop-color="rgb(38.560486%, 44.882202%, 93.606567%)" offset="0.664062"/><stop stop-opacity="1" stop-color="rgb(38.21106%, 45.018005%, 93.666077%)" offset="0.671875"/><stop stop-opacity="1" stop-color="rgb(37.861633%, 45.153809%, 93.725586%)" offset="0.679687"/><stop stop-opacity="1" stop-color="rgb(37.513733%, 45.291138%, 93.785095%)" offset="0.6875"/><stop stop-opacity="1" stop-color="rgb(37.164307%, 45.426941%, 93.844604%)" offset="0.695312"/><stop stop-opacity="1" stop-color="rgb(36.81488%, 45.562744%, 93.904114%)" offset="0.703125"/><stop stop-opacity="1" stop-color="rgb(36.46698%, 45.698547%, 93.963623%)" offset="0.710937"/><stop stop-opacity="1" stop-color="rgb(36.117554%, 45.834351%, 94.023132%)" offset="0.71875"/><stop stop-opacity="1" stop-color="rgb(35.768127%, 45.97168%, 94.082642%)" offset="0.726562"/><stop stop-opacity="1" stop-color="rgb(35.418701%, 46.107483%, 94.142151%)" offset="0.734375"/><stop stop-opacity="1" stop-color="rgb(35.070801%, 46.243286%, 94.20166%)" offset="0.742187"/><stop stop-opacity="1" stop-color="rgb(34.721375%, 46.379089%, 94.261169%)" offset="0.75"/><stop stop-opacity="1" stop-color="rgb(34.371948%, 46.514893%, 94.320679%)" offset="0.757812"/><stop stop-opacity="1" stop-color="rgb(34.022522%, 46.652222%, 94.380188%)" offset="0.765625"/><stop stop-opacity="1" stop-color="rgb(33.674622%, 46.788025%, 94.439697%)" offset="0.773437"/><stop stop-opacity="1" stop-color="rgb(33.325195%, 46.923828%, 94.499207%)" offset="0.78125"/><stop stop-opacity="1" stop-color="rgb(32.975769%, 47.059631%, 94.558716%)" offset="0.789062"/><stop stop-opacity="1" stop-color="rgb(32.627869%, 47.195435%, 94.618225%)" offset="0.796875"/><stop stop-opacity="1" stop-color="rgb(32.278442%, 47.331238%, 94.677734%)" offset="0.804687"/><stop stop-opacity="1" stop-color="rgb(31.929016%, 47.468567%, 94.737244%)" offset="0.8125"/><stop stop-opacity="1" stop-color="rgb(31.57959%, 47.60437%, 94.796753%)" offset="0.820312"/><stop stop-opacity="1" stop-color="rgb(31.231689%, 47.740173%, 94.854736%)" offset="0.828125"/><stop stop-opacity="1" stop-color="rgb(30.870056%, 47.883606%, 94.921875%)" offset="0.835938"/><stop stop-opacity="1" stop-color="rgb(30.490112%, 48.034668%, 94.996643%)" offset="0.84375"/><stop stop-opacity="1" stop-color="rgb(30.107117%, 48.187256%, 95.072937%)" offset="0.851562"/><stop stop-opacity="1" stop-color="rgb(29.724121%, 48.34137%, 95.150757%)" offset="0.859375"/><stop stop-opacity="1" stop-color="rgb(29.341125%, 48.493958%, 95.227051%)" offset="0.867188"/><stop stop-opacity="1" stop-color="rgb(28.95813%, 48.648071%, 95.303345%)" offset="0.875"/><stop stop-opacity="1" stop-color="rgb(28.575134%, 48.800659%, 95.379639%)" offset="0.882812"/><stop stop-opacity="1" stop-color="rgb(28.192139%, 48.954773%, 95.457458%)" offset="0.890625"/><stop stop-opacity="1" stop-color="rgb(27.809143%, 49.107361%, 95.533752%)" offset="0.898437"/><stop stop-opacity="1" stop-color="rgb(27.426147%, 49.261475%, 95.610046%)" offset="0.90625"/><stop stop-opacity="1" stop-color="rgb(27.043152%, 49.414062%, 95.68634%)" offset="0.914062"/><stop stop-opacity="1" stop-color="rgb(26.661682%, 49.568176%, 95.76416%)" offset="0.921875"/><stop stop-opacity="1" stop-color="rgb(26.278687%, 49.720764%, 95.840454%)" offset="0.929687"/><stop stop-opacity="1" stop-color="rgb(25.895691%, 49.874878%, 95.916748%)" offset="0.9375"/><stop stop-opacity="1" stop-color="rgb(25.512695%, 50.027466%, 95.993042%)" offset="0.945312"/><stop stop-opacity="1" stop-color="rgb(25.1297%, 50.18158%, 96.070862%)" offset="0.953125"/><stop stop-opacity="1" stop-color="rgb(24.746704%, 50.334167%, 96.147156%)" offset="0.960937"/><stop stop-opacity="1" stop-color="rgb(24.363708%, 50.488281%, 96.22345%)" offset="0.96875"/><stop stop-opacity="1" stop-color="rgb(23.980713%, 50.640869%, 96.299744%)" offset="0.976562"/><stop stop-opacity="1" stop-color="rgb(23.597717%, 50.794983%, 96.377563%)" offset="0.984375"/><stop stop-opacity="1" stop-color="rgb(23.272705%, 50.924683%, 96.44165%)" offset="1"/></linearGradient><clipPath id="0f6f8c4a41"><rect x="0" width="250" y="0" height="70"/></clipPath></defs><g clip-path="url(#5cd250fad3)"><g transform="matrix(1, 0, 0, 1, 0, 0)"><g clip-path="url(#0f6f8c4a41)"><g clip-path="url(#17b433b6bd)"><g clip-path="url(#a253149da1)"><path fill="url(#4ec255c6ee)" d="M 0.511719 69.488281 L 0.511719 0 L 54.367188 0 L 54.367188 69.488281 Z M 0.511719 69.488281 " fill-rule="nonzero"/></g></g><g clip-path="url(#1883b909f0)"><path fill="#e4e4e4" d="M 78.960938 25.417969 C 78.828125 25.222656 78.65625 25.046875 78.445312 24.910156 C 78.234375 24.777344 78.007812 24.664062 77.757812 24.570312 C 77.511719 24.480469 77.265625 24.390625 77.035156 24.328125 C 76.703125 24.21875 76.359375 24.082031 76.007812 23.933594 C 75.65625 23.789062 75.34375 23.597656 75.058594 23.378906 C 74.773438 23.152344 74.535156 22.894531 74.355469 22.589844 C 74.179688 22.285156 74.085938 21.925781 74.085938 21.523438 C 74.085938 21.117188 74.179688 20.746094 74.355469 20.429688 C 74.535156 20.113281 74.773438 19.832031 75.066406 19.613281 C 75.359375 19.390625 75.6875 19.222656 76.058594 19.105469 C 76.429688 18.992188 76.800781 18.925781 77.171875 18.925781 C 77.585938 18.925781 77.988281 18.992188 78.367188 19.128906 C 78.75 19.269531 79.089844 19.457031 79.386719 19.707031 C 79.683594 19.953125 79.917969 20.257812 80.101562 20.609375 C 80.28125 20.960938 80.375 21.351562 80.378906 21.789062 L 79.140625 21.789062 C 79.109375 21.515625 79.035156 21.265625 78.941406 21.046875 C 78.835938 20.820312 78.710938 20.628906 78.546875 20.46875 C 78.378906 20.304688 78.179688 20.183594 77.949219 20.089844 C 77.714844 20 77.464844 19.960938 77.171875 19.960938 C 76.941406 19.960938 76.714844 19.992188 76.496094 20.058594 C 76.277344 20.125 76.085938 20.222656 75.914062 20.355469 C 75.734375 20.488281 75.597656 20.648438 75.496094 20.839844 C 75.390625 21.03125 75.34375 21.25 75.34375 21.511719 C 75.34375 21.78125 75.417969 22.019531 75.550781 22.207031 C 75.683594 22.390625 75.859375 22.558594 76.066406 22.683594 C 76.273438 22.816406 76.496094 22.929688 76.734375 23.007812 C 76.980469 23.09375 77.199219 23.171875 77.417969 23.238281 C 77.769531 23.34375 78.128906 23.484375 78.480469 23.628906 C 78.828125 23.789062 79.148438 23.980469 79.445312 24.226562 C 79.730469 24.453125 79.96875 24.722656 80.140625 25.042969 C 80.3125 25.359375 80.40625 25.738281 80.40625 26.15625 C 80.40625 26.574219 80.308594 26.957031 80.121094 27.269531 C 79.9375 27.578125 79.683594 27.851562 79.386719 28.058594 C 79.082031 28.269531 78.742188 28.433594 78.367188 28.535156 C 77.988281 28.640625 77.609375 28.691406 77.226562 28.691406 C 76.769531 28.691406 76.332031 28.613281 75.886719 28.460938 C 75.445312 28.308594 75.074219 28.089844 74.746094 27.796875 C 74.460938 27.554688 74.230469 27.261719 74.066406 26.925781 C 73.894531 26.59375 73.808594 26.222656 73.792969 25.8125 L 75.03125 25.8125 C 75.066406 26.109375 75.152344 26.367188 75.277344 26.597656 C 75.402344 26.832031 75.554688 27.023438 75.75 27.175781 C 75.941406 27.339844 76.160156 27.460938 76.410156 27.539062 C 76.65625 27.621094 76.933594 27.660156 77.226562 27.660156 C 77.464844 27.660156 77.691406 27.625 77.921875 27.566406 C 78.152344 27.507812 78.351562 27.414062 78.53125 27.289062 C 78.710938 27.167969 78.855469 27.011719 78.96875 26.824219 C 79.082031 26.640625 79.140625 26.40625 79.140625 26.148438 C 79.140625 25.855469 79.074219 25.613281 78.941406 25.40625 Z M 78.960938 25.417969 " fill-opacity="1" fill-rule="nonzero"/></g><g clip-path="url(#aa75d424fa)"><path fill="#e4e4e4" d="M 85.074219 21.484375 L 87.761719 21.484375 L 87.761719 22.417969 L 85.074219 22.417969 L 85.074219 26.261719 C 85.074219 26.53125 85.105469 26.765625 85.179688 26.9375 C 85.25 27.117188 85.34375 27.253906 85.464844 27.359375 C 85.582031 27.46875 85.722656 27.546875 85.886719 27.59375 C 86.046875 27.632812 86.210938 27.660156 86.398438 27.660156 C 86.53125 27.660156 86.664062 27.660156 86.800781 27.632812 C 86.941406 27.621094 87.082031 27.601562 87.210938 27.578125 C 87.34375 27.554688 87.464844 27.539062 87.582031 27.515625 C 87.703125 27.488281 87.796875 27.472656 87.867188 27.453125 L 88.042969 28.308594 C 87.933594 28.367188 87.816406 28.421875 87.675781 28.46875 C 87.53125 28.515625 87.371094 28.554688 87.207031 28.582031 C 87.035156 28.613281 86.855469 28.640625 86.667969 28.660156 C 86.484375 28.679688 86.292969 28.6875 86.105469 28.6875 C 85.789062 28.6875 85.503906 28.648438 85.226562 28.554688 C 84.945312 28.460938 84.714844 28.320312 84.515625 28.125 C 84.316406 27.929688 84.15625 27.679688 84.046875 27.382812 C 83.933594 27.070312 83.867188 26.707031 83.867188 26.269531 L 83.867188 22.425781 L 82.011719 22.425781 L 82.011719 21.488281 L 83.867188 21.488281 L 83.867188 19.765625 L 85.085938 19.765625 L 85.085938 21.484375 Z M 85.074219 21.484375 " fill-opacity="1" fill-rule="nonzero"/></g><g clip-path="url(#8e9af01d1e)"><path fill="#e4e4e4" d="M 94.828125 27.578125 C 94.589844 27.929688 94.296875 28.195312 93.945312 28.394531 C 93.59375 28.59375 93.191406 28.6875 92.71875 28.6875 C 92.347656 28.6875 92.015625 28.628906 91.710938 28.507812 C 91.40625 28.386719 91.15625 28.210938 90.945312 27.972656 C 90.730469 27.730469 90.566406 27.414062 90.453125 27.035156 C 90.339844 26.660156 90.273438 26.207031 90.273438 25.679688 L 90.273438 21.476562 L 91.480469 21.476562 L 91.480469 25.691406 C 91.480469 26.074219 91.511719 26.394531 91.574219 26.644531 C 91.632812 26.898438 91.726562 27.101562 91.84375 27.25 C 91.964844 27.402344 92.117188 27.507812 92.296875 27.566406 C 92.472656 27.625 92.679688 27.660156 92.90625 27.660156 C 93.175781 27.660156 93.414062 27.625 93.632812 27.558594 C 93.847656 27.5 94.03125 27.40625 94.191406 27.296875 C 94.324219 27.203125 94.4375 27.097656 94.535156 26.96875 C 94.636719 26.84375 94.714844 26.707031 94.78125 26.546875 L 94.78125 21.476562 L 95.992188 21.476562 L 95.992188 28.546875 L 94.898438 28.546875 L 94.828125 27.574219 L 94.828125 27.585938 Z M 94.828125 27.578125 " fill-opacity="1" fill-rule="nonzero"/></g><g clip-path="url(#c39c405217)"><path fill="#e4e4e4" d="M 98.246094 23.511719 C 98.378906 23.066406 98.566406 22.6875 98.816406 22.371094 C 99.0625 22.054688 99.351562 21.808594 99.703125 21.628906 C 100.050781 21.449219 100.445312 21.363281 100.871094 21.363281 C 101.292969 21.363281 101.664062 21.4375 101.976562 21.574219 C 102.289062 21.714844 102.566406 21.921875 102.792969 22.191406 L 102.792969 18.519531 L 104.003906 18.519531 L 104.003906 28.554688 L 102.898438 28.554688 L 102.84375 27.8125 C 102.605469 28.097656 102.328125 28.316406 102.003906 28.46875 C 101.679688 28.613281 101.292969 28.691406 100.855469 28.691406 C 100.421875 28.691406 100.042969 28.601562 99.699219 28.421875 C 99.351562 28.242188 99.054688 27.984375 98.816406 27.667969 C 98.570312 27.347656 98.378906 26.964844 98.246094 26.527344 C 98.113281 26.089844 98.046875 25.617188 98.046875 25.113281 L 98.046875 24.976562 C 98.046875 24.445312 98.113281 23.960938 98.246094 23.523438 Z M 99.367188 26.074219 C 99.4375 26.386719 99.550781 26.660156 99.710938 26.890625 C 99.863281 27.128906 100.054688 27.316406 100.300781 27.449219 C 100.546875 27.578125 100.832031 27.652344 101.164062 27.652344 C 101.566406 27.652344 101.90625 27.558594 102.167969 27.382812 C 102.433594 27.203125 102.648438 26.949219 102.804688 26.640625 L 102.804688 23.359375 C 102.648438 23.074219 102.433594 22.835938 102.167969 22.648438 C 101.90625 22.464844 101.574219 22.371094 101.175781 22.371094 C 100.835938 22.371094 100.546875 22.4375 100.300781 22.578125 C 100.054688 22.714844 99.863281 22.902344 99.703125 23.140625 C 99.546875 23.386719 99.433594 23.65625 99.359375 23.960938 C 99.285156 24.273438 99.253906 24.605469 99.253906 24.941406 L 99.253906 25.082031 C 99.253906 25.425781 99.285156 25.75 99.359375 26.0625 Z M 99.367188 26.074219 " fill-opacity="1" fill-rule="nonzero"/></g><g clip-path="url(#5c465e9f7c)"><path fill="#e4e4e4" d="M 110.101562 21.484375 L 110.101562 27.507812 L 112.40625 27.507812 L 112.40625 28.554688 L 106.488281 28.554688 L 106.488281 27.507812 L 108.894531 27.507812 L 108.894531 22.53125 L 106.488281 22.53125 L 106.488281 21.476562 L 110.101562 21.476562 Z M 108.78125 19.335938 C 108.816406 19.242188 108.871094 19.164062 108.933594 19.097656 C 108.988281 19.042969 109.0625 18.992188 109.152344 18.964844 C 109.246094 18.9375 109.339844 18.917969 109.457031 18.917969 C 109.578125 18.917969 109.671875 18.9375 109.765625 18.964844 C 109.851562 19 109.921875 19.042969 109.984375 19.097656 C 110.054688 19.15625 110.101562 19.238281 110.140625 19.328125 C 110.179688 19.421875 110.195312 19.523438 110.195312 19.632812 C 110.195312 19.828125 110.136719 19.992188 110.015625 20.125 C 109.894531 20.257812 109.710938 20.316406 109.480469 20.316406 C 109.246094 20.316406 109.054688 20.25 108.933594 20.125 C 108.816406 19.992188 108.757812 19.832031 108.757812 19.632812 C 108.757812 19.527344 108.777344 19.4375 108.804688 19.335938 Z M 108.78125 19.335938 " fill-opacity="1" fill-rule="nonzero"/></g><g clip-path="url(#a1f2f2e387)"><path fill="#e4e4e4" d="M 114.21875 23.53125 C 114.363281 23.09375 114.582031 22.714844 114.859375 22.390625 C 115.132812 22.074219 115.46875 21.816406 115.867188 21.628906 C 116.265625 21.445312 116.707031 21.351562 117.207031 21.351562 C 117.703125 21.351562 118.160156 21.445312 118.558594 21.628906 C 118.957031 21.816406 119.300781 22.066406 119.578125 22.390625 C 119.851562 22.710938 120.0625 23.09375 120.214844 23.53125 C 120.359375 23.96875 120.441406 24.4375 120.441406 24.957031 L 120.441406 25.101562 C 120.441406 25.613281 120.367188 26.082031 120.214844 26.519531 C 120.0625 26.957031 119.855469 27.335938 119.578125 27.660156 C 119.300781 27.976562 118.960938 28.234375 118.5625 28.414062 C 118.167969 28.59375 117.722656 28.6875 117.226562 28.6875 C 116.730469 28.6875 116.269531 28.59375 115.875 28.414062 C 115.476562 28.234375 115.136719 27.976562 114.859375 27.660156 C 114.582031 27.339844 114.371094 26.957031 114.21875 26.519531 C 114.066406 26.082031 113.992188 25.613281 113.992188 25.101562 L 113.992188 24.957031 C 113.992188 24.445312 114.066406 23.976562 114.21875 23.53125 Z M 115.324219 26.09375 C 115.410156 26.414062 115.527344 26.691406 115.703125 26.929688 C 115.867188 27.175781 116.078125 27.359375 116.332031 27.5 C 116.582031 27.640625 116.875 27.710938 117.210938 27.710938 C 117.550781 27.710938 117.835938 27.644531 118.085938 27.5 C 118.332031 27.359375 118.542969 27.175781 118.714844 26.929688 C 118.882812 26.683594 119.007812 26.414062 119.085938 26.09375 C 119.175781 25.777344 119.214844 25.445312 119.214844 25.101562 L 119.214844 24.957031 C 119.214844 24.609375 119.175781 24.285156 119.085938 23.96875 C 119 23.648438 118.875 23.371094 118.710938 23.132812 C 118.539062 22.886719 118.324219 22.703125 118.082031 22.5625 C 117.835938 22.425781 117.535156 22.351562 117.199219 22.351562 C 116.859375 22.351562 116.570312 22.425781 116.316406 22.5625 C 116.066406 22.703125 115.859375 22.894531 115.703125 23.132812 C 115.527344 23.378906 115.402344 23.648438 115.324219 23.96875 C 115.238281 24.285156 115.199219 24.617188 115.199219 24.957031 L 115.199219 25.101562 C 115.199219 25.453125 115.238281 25.777344 115.324219 26.09375 Z M 115.324219 26.09375 " fill-opacity="1" fill-rule="nonzero"/></g><g clip-path="url(#da633e92f8)"><g clip-path="url(#9330a7ac87)"><path fill="url(#fd01cb512f)" d="M 75.210938 51.25 L 75.210938 34.746094 L 245.800781 34.746094 L 245.800781 51.25 Z M 75.210938 51.25 " fill-rule="nonzero"/></g></g></g></g></g></svg>