<?xml version="1.0" encoding="UTF-8"?>
<svg id="Layer_1" data-name="Layer 1" xmlns="http://www.w3.org/2000/svg" xmlns:xlink="http://www.w3.org/1999/xlink" viewBox="0 0 137.97 137.97">
  <defs>
    <style>
      .cls-1 {
        fill: #fff;
      }

      .cls-2 {
        fill: url(#linear-gradient);
      }
    </style>
    <linearGradient id="linear-gradient" x1="34.14" y1="68.99" x2="103.83" y2="68.99" gradientUnits="userSpaceOnUse">
      <stop offset="0" stop-color="#9b5de5"/>
      <stop offset=".17" stop-color="#9160e6"/>
      <stop offset=".47" stop-color="#786aeb"/>
      <stop offset=".83" stop-color="#4f7af2"/>
      <stop offset=".99" stop-color="#3b82f6"/>
    </linearGradient>
  </defs>
  <circle class="cls-1" cx="68.99" cy="68.99" r="68.99"/>
  <path class="cls-2" d="M97.37,58.31c0,3.7-3,6.7-6.7,6.7s-6.7-3-6.7-6.7,3-6.7,6.7-6.7,6.7,3,6.7,6.7ZM103.56,28.56c-1.07-3.76-4.98-5.94-8.74-4.88l-55.53,15.73c-3.76,1.07-5.94,4.98-4.88,8.74.88,3.11,3.72,5.15,6.81,5.15.63,0,1.28-.09,1.93-.27l14.92-4.22c.08.43.19.89.32,1.35l10.31,36.81c2.45,8.74,1.18,13.19-4.78,14.86-2.24.63-5.01,1.18-6.5.52-1.5-.66-2.75-2.11-3.66-3.35-.9-1.25-1.46-2.28-2.63-4.47-1.09-2.04-2.23-3.45-3.43-4.22-1.19-.77-2.69-.92-4.47-.42-1.85.52-3.2,1.5-4.07,2.95-.86,1.45-1,3.24-.41,5.36.56,2,1.45,4.01,2.67,6.06,1.23,2.04,2.56,3.77,4,5.19,2.74,2.67,5.81,4.28,9.22,4.86,3.41.57,7.37.24,11.87-1.03,5-1.4,8.95-3.6,11.86-6.62,2.9-3.02,4.6-6.57,5.09-10.65.3-2.44.28-4.74-.05-6.93-.34-2.19-.93-4.8-1.78-7.83l-9.76-34.86c-.13-.48-.28-.93-.45-1.36l27.26-7.72c3.76-1.07,5.94-4.98,4.88-8.74Z"/>
</svg>